<?xml version="1.0" encoding="UTF-8"?>
<svg version="1.1" xmlns="http://www.w3.org/2000/svg" width="662" height="662">
<path d="M0 0 C4.29719536 0.77324969 7.82385554 2.20081212 11.6875 4.1875 C12.36611084 4.53208252 13.04472168 4.87666504 13.74389648 5.23168945 C29.73971841 13.42287962 45.49390292 22.08218058 61.11254883 30.96801758 C68.79109508 35.33263042 76.51261794 39.61598437 84.25 43.875 C85.4838116 44.5543506 86.71761693 45.2337126 87.95141602 45.91308594 C88.56275894 46.24971252 89.17410187 46.58633911 89.80397034 46.9331665 C90.41522263 47.26975281 91.02647491 47.60633911 91.65625 47.953125 C92.57367226 48.45824615 92.57367226 48.45824615 93.5096283 48.97357178 C111.67303635 58.9777179 129.7723754 69.09742894 147.85888672 79.23974609 C151.11446185 81.06414348 154.37149528 82.88591392 157.62890625 84.70703125 C158.72702637 85.32118896 159.82514648 85.93534668 160.95654297 86.56811523 C163.02171112 87.72304266 165.08711743 88.8775444 167.15283203 90.03149414 C174.79645003 94.30786532 182.39444765 98.65397008 190 103 C190 184.18 190 265.36 190 349 C176.635 356.425 176.635 356.425 163 364 C154.11144681 369.19275175 154.11144681 369.19275175 145.23046875 374.3984375 C137.13896687 379.10948392 128.92721608 383.6002002 120.71850586 388.10253906 C113.17536471 392.24079054 105.66559186 396.43253374 98.1875 400.6875 C89.50767619 405.62174915 80.75418392 410.40443862 71.96166992 415.13452148 C65.25540867 418.75158223 58.61543853 422.4698331 52 426.25 C42.3667271 431.74581254 32.61082083 436.99391757 22.8125 442.1875 C22.10279053 442.56370483 21.39308105 442.93990967 20.66186523 443.32751465 C18.63588361 444.40052931 16.60922397 445.47224408 14.58203125 446.54296875 C13.97575394 446.86321518 13.36947662 447.18346161 12.74482727 447.51341248 C11.16504998 448.34576101 9.58264747 449.17312191 8 450 C6.89918091 450.6019519 6.89918091 450.6019519 5.77612305 451.21606445 C4 452 4 452 1 452 C1 440.45 1 428.9 1 417 C13.46085867 409.92544798 25.94517457 402.90551766 38.5 396 C49.14339847 390.14477894 59.74186985 384.21532195 70.30859375 378.22265625 C83.49895626 370.74420207 96.74105139 363.35608604 110 356 C117.29865605 351.94999636 124.58916051 347.88551653 131.875 343.8125 C132.89722656 343.24208984 133.91945313 342.67167969 134.97265625 342.08398438 C136.92411432 340.99212718 138.86479517 339.880677 140.79166794 338.74599552 C144 337 144 337 147.16380692 335.83645535 C150.85590955 334.29469844 153.21642228 332.89852922 156 330 C158.28969907 323.77633133 157.51227104 316.62388706 157.36230469 310.11157227 C157.35891834 308.06130676 157.36082268 306.0110267 157.36761475 303.96076965 C157.37105603 298.40223202 157.30054751 292.84680591 157.21672726 287.28899121 C157.14167471 281.47821695 157.13465983 275.66737007 157.12042236 269.85618591 C157.08313471 258.85553199 156.98467707 247.85631033 156.86422849 236.85628694 C156.73006619 224.33177725 156.66411281 211.80719889 156.60388327 199.28214943 C156.47847522 173.52063909 156.26742629 147.76039981 156 122 C155.30748138 121.61222885 154.61496277 121.2244577 153.90145874 120.82493591 C150.6921006 119.02785352 147.48276895 117.23072381 144.2734375 115.43359375 C143.18474365 114.82398804 142.0960498 114.21438232 140.97436523 113.58630371 C133.52334504 109.41389792 126.07377457 105.23891325 118.625 101.0625 C109.88747689 96.164926 101.13449738 91.29565105 92.375 86.4375 C84.06300368 81.82702276 75.7687295 77.1876305 67.5 72.5 C52.80718513 64.17185585 38.02968281 55.99591165 23.25219727 47.81924438 C20.73293384 46.42490228 18.21437629 45.02928834 15.69592285 43.63348389 C13.90314132 42.64058554 12.10930024 41.64962046 10.31542969 40.65869141 C9.23938477 40.06233887 8.16333984 39.46598633 7.0546875 38.8515625 C6.10062012 38.32385254 5.14655273 37.79614258 4.16357422 37.25244141 C2 36 2 36 1 35 C0.84003834 32.40846893 0.74061303 29.8404798 0.68359375 27.24609375 C0.66281265 26.47064713 0.64203156 25.6952005 0.62062073 24.89625549 C0.55504198 22.41009692 0.49620201 19.92382955 0.4375 17.4375 C0.39432267 15.75584796 0.35070864 14.07420706 0.30664062 12.39257812 C0.19935221 8.26183129 0.09810868 4.13097464 0 0 Z " fill="#B026FF" transform="translate(337,105)"/>
<path d="M0 0 C0 11.55 0 23.1 0 35 C-19.24377279 46.03489069 -38.5183118 57.00410626 -58.0625 67.5 C-67.08415666 72.34994964 -75.95053088 77.4232037 -84.77612305 82.62011719 C-95.72608574 89.0513163 -106.83618325 95.18561771 -117.95458984 101.31933594 C-122.20297783 103.66388483 -126.44570429 106.01855215 -130.6875 108.375 C-131.30802246 108.71885742 -131.92854492 109.06271484 -132.56787109 109.41699219 C-140.06477633 113.57696711 -147.52696924 117.7964202 -155 122 C-155 190.64 -155 259.28 -155 330 C-132.61663043 342.91348245 -110.15420383 355.62706823 -87.51959229 368.08358765 C-78.39258539 373.10728645 -69.30831373 378.2021046 -60.24951172 383.34790039 C-52.97756501 387.4697784 -45.64847691 391.47899172 -38.30078125 395.46386719 C-25.43148186 402.45946257 -12.71733901 409.73294914 0 417 C0 428.55 0 440.1 0 452 C-4.39342656 451.12131469 -6.66861123 450.28428566 -10.4453125 448.1484375 C-12.03956055 447.25415039 -12.03956055 447.25415039 -13.66601562 446.34179688 C-14.80748047 445.69275391 -15.94894531 445.04371094 -17.125 444.375 C-18.3322754 443.69524039 -19.53996535 443.01621655 -20.74804688 442.33789062 C-23.25715001 440.92830161 -25.76444078 439.5155652 -28.27050781 438.10058594 C-33.99712486 434.87067156 -39.74983674 431.68773727 -45.5 428.5 C-47.75273495 427.24893338 -50.00533875 425.99763057 -52.2578125 424.74609375 C-53.9289209 423.81772705 -53.9289209 423.81772705 -55.63378906 422.87060547 C-58.98283822 421.00953681 -62.33133384 419.14747587 -65.6796875 417.28515625 C-76.70393997 411.15493789 -87.73546718 405.03850431 -98.78381348 398.95184326 C-109.43875686 393.08184048 -120.0718592 387.17471606 -130.68139648 381.22290039 C-138.34216874 376.92595962 -146.01111647 372.64399239 -153.6875 368.375 C-154.69441895 367.81417725 -155.70133789 367.25335449 -156.73876953 366.67553711 C-163.95576879 362.66501442 -171.19898006 358.70383906 -178.44848633 354.75244141 C-179.4654081 354.19796829 -180.48232986 353.64349518 -181.53006744 353.07221985 C-184.01995486 351.71464784 -186.5099346 350.3572455 -189 349 C-189.38807107 317.95906831 -189.68879144 286.91877971 -189.8681106 255.87599707 C-189.88937184 252.20866854 -189.91137539 248.5413448 -189.93383789 244.87402344 C-189.93829717 244.14394592 -189.94275645 243.41386841 -189.94735085 242.66166733 C-190.02126444 230.85009686 -190.15526412 219.03993728 -190.31159753 207.229203 C-190.47074838 195.10420978 -190.56503409 182.97995376 -190.59950441 170.85395896 C-190.6227991 163.37449465 -190.69625917 155.89901765 -190.83457994 148.42078166 C-190.93533971 142.67972171 -190.94569845 136.94119794 -190.92283058 131.19943047 C-190.92750055 128.84904783 -190.96123433 126.49851183 -191.02649307 124.14903069 C-191.48309694 106.85927804 -191.48309694 106.85927804 -187.34670711 102.09623861 C-183.31666466 98.83711072 -178.90295218 96.74439668 -174.10225284 94.86077666 C-170.9957594 93.58880927 -168.2053619 91.93369239 -165.3125 90.234375 C-163.20946808 89.07086326 -161.105286 87.90942818 -159 86.75 C-157.25423344 85.7841469 -155.50847117 84.8182859 -153.76300049 83.85189819 C-152.58079733 83.19738824 -151.39846571 82.54311028 -150.21600342 81.8890686 C-144.21673706 78.56995527 -138.23159995 75.22582104 -132.25 71.875 C-131.22197266 71.29911133 -130.19394531 70.72322266 -129.13476562 70.12988281 C-121.3001471 65.73684719 -113.47971788 61.31898315 -105.66308594 56.89404297 C-97.56620719 52.3130237 -89.45041739 47.76624155 -81.3293457 43.22827148 C-76.30756787 40.42016579 -71.29173887 37.60279811 -66.29296875 34.75390625 C-54.6570036 28.12546599 -42.93010639 21.69395401 -31.10644531 15.40820312 C-23.41839622 11.31621162 -15.78039309 7.14957082 -8.23901367 2.79223633 C-3.32354567 0 -3.32354567 0 0 0 Z " fill="#B026FF" transform="translate(318,105)"/>
<path d="M0 0 C4.56010714 0.91202143 6.89113842 1.86271127 10.8046875 4.140625 C11.93535645 4.79337402 13.06602539 5.44612305 14.23095703 6.11865234 C15.4457112 6.82897644 16.66039062 7.53942836 17.875 8.25 C19.753713 9.33931708 21.63373424 10.42635365 23.51376343 11.51339722 C24.7898357 12.25157008 26.06540689 12.99060981 27.34048462 13.73049927 C34.53770111 17.90381619 41.79733641 21.9650741 49.06591797 26.01269531 C49.95424316 26.51124023 50.84256836 27.00978516 51.7578125 27.5234375 C52.5327002 27.95575684 53.30758789 28.38807617 54.10595703 28.83349609 C56 30 56 30 58 32 C58.24723816 34.26403809 58.24723816 34.26403809 58.24291992 37.14648438 C58.24595627 38.23698593 58.24899261 39.32748749 58.25212097 40.45103455 C58.24140312 42.2541787 58.24140312 42.2541787 58.23046875 44.09375 C58.23032524 45.98735008 58.23032524 45.98735008 58.23017883 47.91920471 C58.22901552 51.38894351 58.21454785 54.85851383 58.19723511 58.32820511 C58.18426492 61.22171069 58.17869552 64.11521326 58.17279625 67.00874043 C58.10257635 99.00952435 57.57593089 131.00498204 57 163 C38.19 163 19.38 163 0 163 C0 109.21 0 55.42 0 0 Z " fill="#B026FF" transform="translate(216,268)"/>
<path d="M0 0 C0 53.79 0 107.58 0 163 C-18.81 163 -37.62 163 -57 163 C-57.77471388 130.47097327 -57.77471388 130.47097327 -57.99023438 116.82421875 C-58.13959498 107.40582462 -58.30246668 97.98906096 -58.5534668 88.57275391 C-58.73622501 81.71420821 -58.87266529 74.85654909 -58.95411748 67.99602509 C-58.99883697 64.3643661 -59.06629377 60.73642736 -59.18929482 57.10650635 C-59.91604276 35.01253175 -59.91604276 35.01253175 -56.74141502 30.02116776 C-53.3441565 26.68474397 -49.54184874 25.34438482 -45 24 C-43.52294825 23.21567805 -42.06081883 22.40023949 -40.63671875 21.5234375 C-39.3217335 20.80468577 -38.00530806 20.08856302 -36.6875 19.375 C-31.27866855 16.41797237 -25.92513501 13.38514971 -20.6171875 10.25 C-19.53091064 9.60885254 -18.44463379 8.96770508 -17.32543945 8.30712891 C-15.17486254 7.03367842 -13.02747348 5.75482667 -10.88354492 4.47021484 C-9.41171753 3.59937256 -9.41171753 3.59937256 -7.91015625 2.7109375 C-7.03496338 2.18806152 -6.15977051 1.66518555 -5.25805664 1.12646484 C-3 0 -3 0 0 0 Z " fill="#B026FF" transform="translate(441,268)"/>
<path d="M0 0 C-0.33 40.59 -0.66 81.18 -1 123 C-20.21794131 125.13532681 -39.66379332 124 -59 124 C-59 83.74 -59 43.48 -59 2 C-54.67457663 2.86508467 -52.38438902 3.68345472 -48.65625 5.7578125 C-47.65722656 6.30050781 -46.65820312 6.84320313 -45.62890625 7.40234375 C-43.5396594 8.55260325 -41.4537153 9.70888172 -39.37109375 10.87109375 C-38.37207031 11.41121094 -37.37304688 11.95132812 -36.34375 12.5078125 C-34.98540039 13.26022217 -34.98540039 13.26022217 -33.59960938 14.02783203 C-30.45974452 15.20203769 -29.15441888 15.06797384 -26 14 C-24.07350911 13.0162344 -22.18575975 11.95467672 -20.33203125 10.83984375 C-19.27435547 10.21142578 -18.21667969 9.58300781 -17.12695312 8.93554688 C-16.03318359 8.27619141 -14.93941406 7.61683594 -13.8125 6.9375 C-11.63380484 5.63028291 -9.45292545 4.326697 -7.26953125 3.02734375 C-6.30635986 2.44718506 -5.34318848 1.86702637 -4.35083008 1.26928711 C-2 0 -2 0 0 0 Z " fill="#B026FF" transform="translate(358,306)"/>
<path d="M0 0 C3.47549215 1.32891028 6.72871874 2.84628238 10 4.6171875 C11.4394397 5.39545898 11.4394397 5.39545898 12.90795898 6.18945312 C13.92833252 6.74568359 14.94870605 7.30191406 16 7.875 C17.05711182 8.44927734 18.11422363 9.02355469 19.20336914 9.61523438 C28.68951377 14.78936628 38.08139267 20.1214418 47.43139648 25.53710938 C51.26970255 27.72313066 55.13870942 29.85483857 59 32 C59 41.9 59 51.8 59 62 C54.73365634 60.57788545 51.85545362 59.51358575 48.1484375 57.3046875 C47.22748291 56.76094482 46.30652832 56.21720215 45.35766602 55.65698242 C44.37338623 55.06892822 43.38910645 54.48087402 42.375 53.875 C40.24686429 52.61718497 38.11792203 51.36073383 35.98828125 50.10546875 C34.86373535 49.44208496 33.73918945 48.77870117 32.58056641 48.09521484 C25.65418382 44.0283898 18.65878654 40.07950637 11.67327881 36.11541748 C9.90777521 35.11335596 8.14331554 34.10945586 6.37890625 33.10546875 C5.3638501 32.52949951 4.34879395 31.95353027 3.30297852 31.36010742 C1 30 1 30 0 29 C-0.08775605 26.85441173 -0.10695219 24.70595579 -0.09765625 22.55859375 C-0.09443359 21.25341797 -0.09121094 19.94824219 -0.08789062 18.60351562 C-0.07953401 17.2148431 -0.07106905 15.82617123 -0.0625 14.4375 C-0.05748666 13.04492344 -0.05292347 11.65234519 -0.04882812 10.25976562 C-0.03699434 6.8398013 -0.0205088 3.41992156 0 0 Z " fill="#B026FF" transform="translate(215,227)"/>
<path d="M0 0 C0.59929447 7.36458432 0.93956154 14.68068835 0.765625 22.06640625 C0.74016602 23.27498291 0.71470703 24.48355957 0.68847656 25.72875977 C-0.18093795 29.85971192 -1.68291175 31.32385319 -4.9375 33.9375 C-6.81718791 34.67910365 -8.70169241 35.41227464 -10.61474609 36.06298828 C-15.76510585 38.08623094 -20.46545495 41.11891242 -25.25 43.875 C-27.42425163 45.08738267 -29.60002274 46.29704458 -31.77734375 47.50390625 C-37.87870532 50.9107721 -43.90552111 54.43333308 -49.87402344 58.06787109 C-52.90474624 59.88927148 -55.54870855 61.25538328 -59 62 C-59.22363929 57.98060937 -59.38628486 53.96365228 -59.49438477 49.93945312 C-59.53946167 48.57325144 -59.6007517 47.2074797 -59.67895508 45.84277344 C-60.30527757 34.62627916 -60.30527757 34.62627916 -57.35205078 30.94677734 C-54.98101988 29.32527421 -52.6235712 28.1671464 -50 27 C-48.19811961 26.00641963 -46.4013864 25.00345898 -44.609375 23.9921875 C-42.65823608 22.94940034 -40.70502901 21.91047559 -38.75 20.875 C-29.61463041 15.98673851 -20.57318125 10.96353702 -11.60058594 5.78271484 C-10.78879883 5.31430176 -9.97701172 4.84588867 -9.140625 4.36328125 C-8.08149902 3.74900269 -8.08149902 3.74900269 -7.00097656 3.12231445 C-1.43419621 0 -1.43419621 0 0 0 Z " fill="#B026FF" transform="translate(442,227)"/>
<path d="M0 0 C4.38083023 1.46027674 7.17827959 2.52594692 10.93359375 4.85546875 C12.2784082 5.66467773 12.2784082 5.66467773 13.65039062 6.49023438 C15.51084826 7.62319701 17.36505506 8.76648757 19.21289062 9.91992188 C23.07243588 12.22234981 25.93107178 13.92632246 30.45703125 14.23828125 C35.72154221 12.39831436 40.41979222 9.76558071 45.25 7 C47.21244895 5.89389241 49.17594399 4.78963813 51.140625 3.6875 C52.00204102 3.19636719 52.86345703 2.70523437 53.75097656 2.19921875 C56 1 56 1 59 0 C60.17340274 21.27636871 60.17340274 21.27636871 55.53125 27.09375 C52.71241098 28.76315952 49.97177112 30.082826 46.90087891 31.21826172 C43.54469852 32.59849414 40.5679593 34.6416907 37.5 36.5625 C31.7051037 40.07798181 31.7051037 40.07798181 28.62915039 39.73779297 C25.81970573 38.94940577 23.43962634 37.88976998 20.83984375 36.56640625 C19.88142578 36.08236328 18.92300781 35.59832031 17.93554688 35.09960938 C16.45151367 34.33874023 16.45151367 34.33874023 14.9375 33.5625 C13.44766602 32.80743164 13.44766602 32.80743164 11.92773438 32.03710938 C10.0818633 31.10112222 8.23723764 30.16267192 6.39428711 29.22094727 C4.26819672 28.13676474 2.1346123 27.06730615 0 26 C0 17.42 0 8.84 0 0 Z " fill="#B026FF" transform="translate(299,271)"/>
</svg>
